<svg width="130" height="130" viewBox="0 0 130 130" fill="none" xmlns="http://www.w3.org/2000/svg">
<path fill-rule="evenodd" clip-rule="evenodd" d="M0 0H130V130H0V0Z" fill="white"/>
<path fill-rule="evenodd" clip-rule="evenodd" d="M23.0483 72.4067C22.0448 72.4067 21.2591 73.1088 21.2591 74.1332C21.2591 75.1584 22.0488 75.8564 23.0483 75.8564C24.0471 75.8564 24.8376 75.1537 24.8376 74.1332C24.8376 73.1088 24.0512 72.4067 23.0483 72.4067ZM23.0483 75.3627C22.3327 75.3627 21.802 74.84 21.802 74.1332C21.802 73.4271 22.3287 72.9004 23.0483 72.9004C23.7592 72.9004 24.294 73.4352 24.294 74.1332C24.294 74.8272 23.7544 75.3627 23.0483 75.3627ZM40.4587 66.3679H31.7484L32.7385 51.2283L27.0821 66.3679H18.9937L31.8273 32.1481H40.4337L39.4403 47.4954L45.2039 32.1481H53.293L40.4587 66.3679ZM41.5094 66.3679L54.3424 32.1481H62.4309L49.5978 66.3679H41.5094Z" fill="black"/>
<path fill-rule="evenodd" clip-rule="evenodd" d="M18.0611 54.5726C6.75838 67.846 -3.90365 85.5073 5.51406 93.6402C14.6397 101.522 26.0463 96.8552 33.8238 93.7441C41.6013 90.6329 127.566 53.302 127.566 53.302C128.395 52.8872 128.24 52.3686 127.203 52.6276C126.785 52.7321 33.6168 77.9813 33.6168 77.9813C21.7941 81.3002 8.31361 74.067 18.0611 54.5726Z" fill="black"/>
<path fill-rule="evenodd" clip-rule="evenodd" d="M23.3537 74.2546C23.6046 74.2424 23.8008 74.1129 23.8008 73.7656C23.8008 73.3178 23.5081 73.2051 23.0192 73.2051H22.3164V75.0618H22.7851V74.2714H22.864L23.291 75.0618H23.8298L23.3537 74.2546ZM23.0529 73.9538H22.7858V73.5228H23.0111C23.1493 73.5228 23.3078 73.539 23.3078 73.7191C23.3078 73.9119 23.2161 73.9538 23.0529 73.9538ZM104.356 32.0435C103.353 32.0435 102.567 32.7462 102.567 33.77C102.567 34.7944 103.358 35.4925 104.356 35.4925C105.355 35.4925 106.146 34.7897 106.146 33.77C106.146 32.7462 105.361 32.0435 104.356 32.0435ZM104.356 35.0001C103.641 35.0001 103.11 34.4775 103.11 33.7707C103.11 33.0645 103.637 32.5378 104.356 32.5378C105.067 32.5378 105.603 33.0726 105.603 33.7707C105.603 34.4647 105.063 35.0001 104.356 35.0001Z" fill="black"/>
<path fill-rule="evenodd" clip-rule="evenodd" d="M104.662 33.8915C104.913 33.8793 105.11 33.7498 105.11 33.4025C105.11 32.9547 104.816 32.8421 104.328 32.8421H103.625V34.6981H104.093V33.9083H104.173L104.599 34.6981H105.139L104.662 33.8915ZM104.36 33.5907H104.093V33.1597H104.319C104.457 33.1597 104.616 33.1766 104.616 33.3566C104.616 33.5489 104.524 33.5907 104.36 33.5907ZM99.0271 37.8517L101.201 32.1481H76.5207L68.0466 42.4142L71.9589 32.1481H63.7666L51.0361 66.3679H59.1245L64.5598 52.0579L64.932 66.3679L89.7503 66.3139L92.1128 59.7315H82.6769L85.7773 51.436H93.5541L95.947 45.0586H88.1701L90.8361 37.8517H99.0271ZM72.9564 64.0863L72.4378 46.251L84.6672 32.8238L72.9564 64.0863Z" fill="black"/>
</svg>
